<?xml version="1.0" encoding="utf-8"?>
<!-- Generator: Adobe Illustrator 25.4.1, SVG Export Plug-In . SVG Version: 6.00 Build 0)  -->
<svg version="1.1" id="Слой_1" xmlns="http://www.w3.org/2000/svg" xmlns:xlink="http://www.w3.org/1999/xlink" x="0px" y="0px"
	 viewBox="0 0 64 64" style="enable-background:new 0 0 64 64;" xml:space="preserve">
<style type="text/css">
	.st0{fill:#FFFFFF;}
</style>
<path class="st0" d="M52.17,26.37c-3.63-0.13-7.91,1.26-11.97,3.98l0.02-0.02c2.34-3.51,3.7-7.18,3.94-10.45
	C38.65,14.37,34.44,7.59,32,0C27.75,13.21,18.12,23.99,5.69,29.77C3.85,30.63,1.95,31.37,0,32c4.22,1.36,8.19,3.26,11.82,5.63
	c3.63,0.13,7.91-1.26,11.97-3.98l-0.02,0.02c-2.34,3.51-3.7,7.18-3.94,10.45C25.34,49.63,29.56,56.41,32,64
	c4.25-13.21,13.88-23.99,26.31-29.77c1.84-0.85,3.73-1.6,5.69-2.23C59.78,30.64,55.81,28.74,52.17,26.37z"/>
</svg>
